<?xml version="1.0" encoding="UTF-8" standalone="no"?>
<svg
   width="16"
   height="16"
   viewBox="0 0 16 16"
   fill="none"
   version="1.1"
   id="svg1"
   sodipodi:docname="SSH.light.svg"
   inkscape:version="1.3.2 (091e20e, 2023-11-25, custom)"
   inkscape:export-filename="SSH.light.png"
   inkscape:export-xdpi="288"
   inkscape:export-ydpi="288"
   xmlns:inkscape="http://www.inkscape.org/namespaces/inkscape"
   xmlns:sodipodi="http://sodipodi.sourceforge.net/DTD/sodipodi-0.dtd"
   xmlns="http://www.w3.org/2000/svg"
   xmlns:svg="http://www.w3.org/2000/svg">
  <defs
     id="defs1">
    <inkscape:path-effect
       effect="fillet_chamfer"
       id="path-effect1"
       is_visible="true"
       lpeversion="1"
       nodesatellites_param="F,0,0,1,0,2,0,1 @ F,0,0,1,0,2,0,1 @ F,0,0,1,0,2,0,1 @ F,0,0,1,0,2,0,1 | F,0,0,1,0,1,0,1 @ F,0,0,1,0,1,0,1 @ F,0,0,1,0,1,0,1 @ F,0,0,1,0,1,0,1 | F,0,0,1,0,0.5,0,1 @ F,0,0,1,0,0.5,0,1 @ F,0,0,1,0,1,0,1 @ F,0,0,1,0,0,0,1 @ F,0,0,1,0,0,0,1 @ F,0,0,1,0,0.5,0,1 @ F,0,0,1,0,0.5,0,1 @ F,0,0,1,0,0.5,0,1"
       radius="0"
       unit="px"
       method="auto"
       mode="F"
       chamfer_steps="1"
       flexible="false"
       use_knot_distance="true"
       apply_no_radius="true"
       apply_with_radius="true"
       only_selected="false"
       hide_knots="false" />
  </defs>
  <sodipodi:namedview
     id="namedview1"
     pagecolor="#ffffff"
     bordercolor="#000000"
     borderopacity="0.25"
     inkscape:showpageshadow="2"
     inkscape:pageopacity="0.0"
     inkscape:pagecheckerboard="0"
     inkscape:deskcolor="#d1d1d1"
     inkscape:zoom="46.8125"
     inkscape:cx="8"
     inkscape:cy="8"
     inkscape:window-width="1920"
     inkscape:window-height="1166"
     inkscape:window-x="-11"
     inkscape:window-y="-11"
     inkscape:window-maximized="1"
     inkscape:current-layer="svg1" />
  <path
     fill-rule="evenodd"
     clip-rule="evenodd"
     d="m 3.00024,1 h 9.99996 a 2,2 45 0 1 2,2 l 0,10 a 2,2 135 0 1 -2,2 H 3.00024 a 2,2 45 0 1 -2,-2 V 3 a 2,2 135 0 1 2,-2 z m 0,13 h 9.99996 a 1,1 135 0 0 1,-1 V 3 a 1,1 45 0 0 -1,-1 H 3.00024 a 1,1 135 0 0 -1,1 v 10 a 1,1 45 0 0 1,1 z M 4.3538759,5.3535391 a 0.50000228,0.50000228 3.4689641e-4 0 1 0.7071075,4.3e-6 l 2.4748698,2.4748698 a 1,1 90 0 1 0,1.4142136 l -3.2e-6,3.2e-6 -2e-5,-3e-5 -2.4749279,2.474945 a 0.50000177,0.50000177 179.9997 0 1 -0.707108,4e-6 0.49999786,0.49999786 89.99979 0 1 -2.6e-6,-0.707104 l 2.121377,-2.1213997 a 0.50000265,0.50000265 89.999848 0 0 -1.9e-6,-0.7071087 L 4.3538734,6.0606434 a 0.49999646,0.49999646 90.000203 0 1 2.5e-6,-0.7071043 z"
     fill="#424242"
     id="path1"
     inkscape:path-effect="#path-effect1"
     inkscape:original-d="M 1.00024,1 H 15.0002 V 15 H 1.00024 Z m 1,13 H 14.0002 V 2 H 2.00024 Z M 4.00032,5.70709 4.70743,4.99999 8.24296,8.53552 7.53585,9.24263 7.53583,9.2426 4.70735,12.0711 4.00024,11.364 6.82872,8.53549 Z"
     style="fill:#000000;fill-opacity:1" />
</svg>
